<svg class="svg-icon" style="width: 1em; height: 1em;vertical-align: middle;fill: currentColor;overflow: hidden;" viewBox="0 0 1024 1024" version="1.1" xmlns="http://www.w3.org/2000/svg"><path d="M215.578947 862.315789l323.368421 0c0-18.593684 2.371368-36.648421 6.790737-53.894737L215.578947 808.421053 215.578947 862.315789z"  /><path d="M808.421053 646.736842l-53.894737 0c18.593684 0 36.648421 2.371368 53.894737 6.790737L808.421053 646.736842z"  /><path d="M808.421053 1024 808.421053 916.210526 916.210526 916.210526 916.210526 808.421053 808.421053 808.421053 808.421053 700.631579 700.631579 700.631579 700.631579 808.421053 592.842105 808.421053 592.842105 916.210526 700.631579 916.210526 700.631579 1024Z"  /><path d="M754.526316 646.736842 215.578947 646.736842l0 53.894737 396.341895 0C649.916632 667.109053 699.877053 646.736842 754.526316 646.736842z"  /><path d="M215.578947 485.052632l592.842105 0 0 53.894737-592.842105 0 0-53.894737Z"  /><path d="M916.210526 11.317895C916.210526 5.066105 911.252211 0 905.108211 0L118.891789 0C112.747789 0 107.789474 5.012211 107.789474 11.317895l0 1001.364211C107.789474 1018.933895 112.747789 1024 118.891789 1024l493.029053 0c-17.461895-15.413895-32.390737-33.630316-44.139789-53.894737L161.684211 970.105263 161.684211 53.894737l700.631579 0 0 621.675789c20.264421 11.749053 38.480842 26.677895 53.894737 44.139789L916.210526 11.317895z"  /><path d="M215.578947 323.368421l592.842105 0 0 53.894737-592.842105 0 0-53.894737Z"  /><path d="M215.578947 161.684211l592.842105 0 0 53.894737-592.842105 0 0-53.894737Z"  /></svg>