<svg class="svg-icon" style="width: 1em; height: 1em;vertical-align: middle;fill: currentColor;overflow: hidden;" viewBox="0 0 1024 1024" version="1.1" xmlns="http://www.w3.org/2000/svg"><path d="M298.666667 256V128a42.666667 42.666667 0 0 1 42.666666-42.666667h341.333334a42.666667 42.666667 0 0 1 42.666666 42.666667v128h213.333334v85.333333h-85.333334v554.666667a42.666667 42.666667 0 0 1-42.666666 42.666667H213.333333a42.666667 42.666667 0 0 1-42.666666-42.666667V341.333333H85.333333V256h213.333334z m273.664 341.333333l75.434666-75.434666-60.330666-60.330667L512 537.002667l-75.434667-75.434667-60.330666 60.330667L451.669333 597.333333l-75.434666 75.434667 60.330666 60.330667L512 657.664l75.434667 75.434667 60.330666-60.330667L572.330667 597.333333zM384 170.666667v85.333333h256V170.666667H384z"  /></svg>