<?xml version="1.0" encoding="UTF-8" standalone="no"?>
<svg
   xmlns:dc="http://purl.org/dc/elements/1.1/"
   xmlns:cc="http://creativecommons.org/ns#"
   xmlns:rdf="http://www.w3.org/1999/02/22-rdf-syntax-ns#"
   xmlns:svg="http://www.w3.org/2000/svg"
   xmlns="http://www.w3.org/2000/svg"
   xmlns:xlink="http://www.w3.org/1999/xlink"
   xmlns:sodipodi="http://sodipodi.sourceforge.net/DTD/sodipodi-0.dtd"
   xmlns:inkscape="http://www.inkscape.org/namespaces/inkscape"
   width="210mm"
   height="297mm"
   viewBox="0 0 210 297"
   version="1.1"
   id="svg8"
   inkscape:version="1.0.2 (e86c870, 2021-01-15)"
   sodipodi:docname="colorRenovate.svg">
  <defs
     id="defs2">
    <linearGradient
       inkscape:collect="always"
       id="linearGradient861">
      <stop
         style="stop-color:#000051;stop-opacity:1;"
         offset="0"
         id="stop857" />
      <stop
         style="stop-color:#000051;stop-opacity:0;"
         offset="1"
         id="stop859" />
    </linearGradient>
    <linearGradient
       inkscape:collect="always"
       xlink:href="#linearGradient861"
       id="linearGradient863"
       x1="40.786669"
       y1="147.97735"
       x2="209.15312"
       y2="147.97735"
       gradientUnits="userSpaceOnUse" />
  </defs>
  <sodipodi:namedview
     id="base"
     pagecolor="#ffffff"
     bordercolor="#666666"
     borderopacity="1.0"
     inkscape:pageopacity="0.0"
     inkscape:pageshadow="2"
     inkscape:zoom="0.7"
     inkscape:cx="317.17522"
     inkscape:cy="509.13868"
     inkscape:document-units="mm"
     inkscape:current-layer="layer1"
     inkscape:document-rotation="0"
     showgrid="true"
     inkscape:window-width="1710"
     inkscape:window-height="1208"
     inkscape:window-x="295"
     inkscape:window-y="31"
     inkscape:window-maximized="0">
    <inkscape:grid
       type="xygrid"
       id="grid24" />
  </sodipodi:namedview>
  <metadata
     id="metadata5">
    <rdf:RDF>
      <cc:Work
         rdf:about="">
        <dc:format>image/svg+xml</dc:format>
        <dc:type
           rdf:resource="http://purl.org/dc/dcmitype/StillImage" />
        <dc:title></dc:title>
      </cc:Work>
    </rdf:RDF>
  </metadata>
  <g
     inkscape:label="Слой 1"
     inkscape:groupmode="layer"
     id="layer1">
    <path
       style="fill:url(#linearGradient863);stroke:#000000;stroke-width:0.264583px;stroke-linecap:butt;stroke-linejoin:miter;stroke-opacity:1;fill-opacity:1"
       d="m 55.940475,0.37797618 c 0,0 8.315476,32.88392882 -3.779761,65.01190482 -12.095239,32.127975 -14.741072,56.318449 -6.425596,80.130949 8.315475,23.8125 3.779763,26.45833 1.889881,40.06548 -1.889881,13.60714 -3.023809,32.88393 12.473215,54.05059 15.497024,21.16667 18.520833,25.32441 16.630952,35.52976 -1.889882,10.20535 -3.023809,12.09524 -3.023809,12.09524 0,0 -4.535715,4.91369 3.77976,2.64584 8.315476,-2.26785 4.157739,-6.42559 8.315476,-4.91368 4.157739,1.51188 5.291667,-17.7649 7.9375,-14.74108 2.645833,3.02379 0.755954,2.26785 2.645833,6.04761 1.889882,3.77976 2.645834,13.22916 4.157744,4.15774 1.5119,-9.07142 -2.645838,-34.77381 10.20535,-12.85118 12.85119,21.9226 16.63095,9.44941 12.85119,17.38691 -3.77976,7.9375 9.07143,12.09521 17.00893,1.13392 7.9375,-10.96132 8.31548,-15.49704 10.20536,-25.32441 1.88988,-9.82738 0,-10.58333 1.13393,-20.41072 1.13393,-9.82738 9.07143,-10.58333 10.96131,-1.13393 1.88988,9.44941 -2.26786,11.33929 0,21.16667 2.26785,9.82739 3.40178,18.52083 6.04762,15.11906 2.64583,-3.4018 1.13392,-3.77976 3.77976,-10.20538 2.64583,-6.42558 3.77976,-13.60713 9.07143,-7.93749 5.29166,5.66964 4.15773,6.4256 5.66964,14.74107 1.5119,8.31548 0.75595,11.3393 4.15774,14.36309 3.40178,3.02381 7.18154,9.82739 10.96131,9.82739 3.77976,0 6.42559,-17.76489 6.42559,-22.67858 0,-4.91368 0,-274.03272618 0,-274.03272618 z"
       id="path22" />
  </g>
</svg>
