<?xml version="1.0" encoding="UTF-8" standalone="no"?>
<svg
   xmlns:dc="http://purl.org/dc/elements/1.1/"
   xmlns:cc="http://creativecommons.org/ns#"
   xmlns:rdf="http://www.w3.org/1999/02/22-rdf-syntax-ns#"
   xmlns:svg="http://www.w3.org/2000/svg"
   xmlns="http://www.w3.org/2000/svg"
   xmlns:sodipodi="http://sodipodi.sourceforge.net/DTD/sodipodi-0.dtd"
   xmlns:inkscape="http://www.inkscape.org/namespaces/inkscape"
   version="1.1"
   id="svg833"
   width="199.00716"
   height="194.15292"
   viewBox="0 0 199.00716 194.15292"
   sodipodi:docname="lapa.svg"
   inkscape:version="1.0.2 (e86c870, 2021-01-15)">
  <metadata
     id="metadata839">
    <rdf:RDF>
      <cc:Work
         rdf:about="">
        <dc:format>image/svg+xml</dc:format>
        <dc:type
           rdf:resource="http://purl.org/dc/dcmitype/StillImage" />
        <dc:title></dc:title>
      </cc:Work>
    </rdf:RDF>
  </metadata>
  <defs
     id="defs837" />
  <sodipodi:namedview
     pagecolor="#ffffff"
     bordercolor="#666666"
     borderopacity="1"
     objecttolerance="10"
     gridtolerance="10"
     guidetolerance="10"
     inkscape:pageopacity="0"
     inkscape:pageshadow="2"
     inkscape:window-width="2560"
     inkscape:window-height="1361"
     id="namedview835"
     showgrid="false"
     inkscape:zoom="4.5201794"
     inkscape:cx="65.165592"
     inkscape:cy="110.46407"
     inkscape:window-x="-9"
     inkscape:window-y="-9"
     inkscape:window-maximized="1"
     inkscape:current-layer="svg833"
     inkscape:document-rotation="0" />
  <g
     inkscape:groupmode="layer"
     inkscape:label="Image"
     id="g841"
     style="display:inline"
     transform="translate(-13.211888,-18.734345)">
    <path
       style="fill:#3c3f3e;fill-opacity:0.47678;stroke-width:0.22123"
       d="m 44.231853,191.24942 c -5.522682,-2.00912 -7.285952,-3.00501 -8.600487,-4.85749 -0.486706,-0.68588 -1.70329,-2.10389 -2.70352,-3.15112 l -1.818599,-1.90406 -1.899578,-5.51496 -1.899579,-5.51496 0.07441,-3.20784 0.07441,-3.20784 2.136656,-5.47857 2.136656,-5.47857 2.060187,-2.6115 c 2.030223,-2.57352 2.150818,-2.67971 8.291549,-7.30153 5.624708,-4.23343 6.508387,-4.98859 9.076885,-7.7568 1.565035,-1.68672 3.959267,-4.0807 5.320514,-5.31995 1.799716,-1.63843 3.060675,-3.04901 4.621606,-5.17 2.535944,-3.44582 5.240248,-6.34518 10.383518,-11.13241 7.178243,-6.68135 8.623166,-7.86793 12.155375,-9.98206 3.020861,-1.80808 3.537444,-2.03851 5.823661,-2.59783 l 2.508754,-0.61375 4.570611,0.25549 c 3.713648,0.20759 5.330988,0.4108 8.626058,1.08378 l 4.05546,0.82828 2.33728,1.98841 c 1.94943,1.65844 3.13992,2.98997 7.17407,8.02405 4.49292,5.60655 4.94834,6.25833 6.40593,9.16794 1.43064,2.85585 1.85096,3.4653 4.76235,6.90531 1.75627,2.07516 3.70871,4.64377 4.33876,5.70801 l 1.14554,1.935 2.55207,1.46674 c 1.40363,0.8067 3.64715,2.27781 4.98559,3.26912 2.01156,1.48985 2.91304,1.98991 5.19891,2.88384 3.60019,1.40792 9.42988,4.31322 13.64294,6.79913 l 3.35574,1.98005 2.24838,2.9946 c 2.06829,2.75474 2.3353,3.22779 3.33347,5.90576 l 1.08509,2.91115 0.003,5.07832 0.003,5.07831 -0.82846,2.51716 c -0.81836,2.48647 -0.85345,2.5449 -2.87672,4.79031 -1.86377,2.06838 -2.34868,2.45784 -5.38352,4.32372 -3.25891,2.00365 -3.39942,2.06498 -6.13841,2.6794 -1.54173,0.34586 -4.97934,0.9432 -7.63912,1.32744 l -4.83596,0.69862 -5.00878,-0.35848 c -8.01241,-0.57345 -19.77779,-2.29619 -26.57872,-3.89177 -5.21795,-1.22419 -9.92646,-1.62046 -14.71181,-1.23814 -3.607635,0.28823 -4.256886,0.41718 -18.251488,3.62515 -2.616046,0.59968 -6.199975,1.30934 -7.964285,1.57704 -2.162979,0.32818 -3.892401,0.73996 -5.309524,1.2642 l -2.101687,0.77748 -4.977678,-0.0763 c -2.737723,-0.0419 -6.172322,-0.009 -7.632441,0.073 l -2.654762,0.14924 z"
       id="path855"
       transform="translate(13.211888,18.734345)" />
    <path
       style="fill:#3c3f3e;fill-opacity:0.47678;stroke-width:0.22123"
       d="m 44.231853,191.24942 c -5.522682,-2.00912 -7.285952,-3.00501 -8.600487,-4.85749 -0.486706,-0.68588 -1.70329,-2.10389 -2.70352,-3.15112 l -1.818599,-1.90406 -1.899578,-5.51496 -1.899579,-5.51496 0.07441,-3.20784 0.07441,-3.20784 2.136656,-5.47857 2.136656,-5.47857 2.060187,-2.6115 c 2.030223,-2.57352 2.150818,-2.67971 8.291549,-7.30153 5.624708,-4.23343 6.508387,-4.98859 9.076885,-7.7568 1.565035,-1.68672 3.959267,-4.0807 5.320514,-5.31995 1.799716,-1.63843 3.060675,-3.04901 4.621606,-5.17 2.535944,-3.44582 5.240248,-6.34518 10.383518,-11.13241 7.178243,-6.68135 8.623166,-7.86793 12.155375,-9.98206 3.020861,-1.80808 3.537444,-2.03851 5.823661,-2.59783 l 2.508754,-0.61375 4.570611,0.25549 c 3.713648,0.20759 5.330988,0.4108 8.626058,1.08378 l 4.05546,0.82828 2.33728,1.98841 c 1.94943,1.65844 3.13992,2.98997 7.17407,8.02405 4.49292,5.60655 4.94834,6.25833 6.40593,9.16794 1.43064,2.85585 1.85096,3.4653 4.76235,6.90531 1.75627,2.07516 3.70871,4.64377 4.33876,5.70801 l 1.14554,1.935 2.55207,1.46674 c 1.40363,0.8067 3.64715,2.27781 4.98559,3.26912 2.01156,1.48985 2.91304,1.98991 5.19891,2.88384 3.60019,1.40792 9.42988,4.31322 13.64294,6.79913 l 3.35574,1.98005 2.24838,2.9946 c 2.06829,2.75474 2.3353,3.22779 3.33347,5.90576 l 1.08509,2.91115 0.003,5.07832 0.003,5.07831 -0.82846,2.51716 c -0.81836,2.48647 -0.85345,2.5449 -2.87672,4.79031 -1.86377,2.06838 -2.34868,2.45784 -5.38352,4.32372 -3.25891,2.00365 -3.39942,2.06498 -6.13841,2.6794 -1.54173,0.34586 -4.97934,0.9432 -7.63912,1.32744 l -4.83596,0.69862 -5.00878,-0.35848 c -8.01241,-0.57345 -19.77779,-2.29619 -26.57872,-3.89177 -5.21795,-1.22419 -9.92646,-1.62046 -14.71181,-1.23814 -3.607635,0.28823 -4.256886,0.41718 -18.251488,3.62515 -2.616046,0.59968 -6.199975,1.30934 -7.964285,1.57704 -2.162979,0.32818 -3.892401,0.73996 -5.309524,1.2642 l -2.101687,0.77748 -4.977678,-0.0763 c -2.737723,-0.0419 -6.172322,-0.009 -7.632441,0.073 l -2.654762,0.14924 z"
       id="path857"
       transform="translate(13.211888,18.734345)" />
    <path
       style="fill:#3c3f3e;fill-opacity:0.47678;stroke-width:0.22123"
       d="m 44.231853,191.24942 c -5.522682,-2.00912 -7.285952,-3.00501 -8.600487,-4.85749 -0.486706,-0.68588 -1.70329,-2.10389 -2.70352,-3.15112 l -1.818599,-1.90406 -1.899578,-5.51496 -1.899579,-5.51496 0.07441,-3.20784 0.07441,-3.20784 2.136656,-5.47857 2.136656,-5.47857 2.060187,-2.6115 c 2.030223,-2.57352 2.150818,-2.67971 8.291549,-7.30153 5.624708,-4.23343 6.508387,-4.98859 9.076885,-7.7568 1.565035,-1.68672 3.959267,-4.0807 5.320514,-5.31995 1.799716,-1.63843 3.060675,-3.04901 4.621606,-5.17 2.535944,-3.44582 5.240248,-6.34518 10.383518,-11.13241 7.178243,-6.68135 8.623166,-7.86793 12.155375,-9.98206 3.020861,-1.80808 3.537444,-2.03851 5.823661,-2.59783 l 2.508754,-0.61375 4.570611,0.25549 c 3.713648,0.20759 5.330988,0.4108 8.626058,1.08378 l 4.05546,0.82828 2.33728,1.98841 c 1.94943,1.65844 3.13992,2.98997 7.17407,8.02405 4.49292,5.60655 4.94834,6.25833 6.40593,9.16794 1.43064,2.85585 1.85096,3.4653 4.76235,6.90531 1.75627,2.07516 3.70871,4.64377 4.33876,5.70801 l 1.14554,1.935 2.55207,1.46674 c 1.40363,0.8067 3.64715,2.27781 4.98559,3.26912 2.01156,1.48985 2.91304,1.98991 5.19891,2.88384 3.60019,1.40792 9.42988,4.31322 13.64294,6.79913 l 3.35574,1.98005 2.24838,2.9946 c 2.06829,2.75474 2.3353,3.22779 3.33347,5.90576 l 1.08509,2.91115 0.003,5.07832 0.003,5.07831 -0.82846,2.51716 c -0.81836,2.48647 -0.85345,2.5449 -2.87672,4.79031 -1.86377,2.06838 -2.34868,2.45784 -5.38352,4.32372 -3.25891,2.00365 -3.39942,2.06498 -6.13841,2.6794 -1.54173,0.34586 -4.97934,0.9432 -7.63912,1.32744 l -4.83596,0.69862 -5.00878,-0.35848 c -8.01241,-0.57345 -19.77779,-2.29619 -26.57872,-3.89177 -5.21795,-1.22419 -9.92646,-1.62046 -14.71181,-1.23814 -3.607635,0.28823 -4.256886,0.41718 -18.251488,3.62515 -2.616046,0.59968 -6.199975,1.30934 -7.964285,1.57704 -2.162979,0.32818 -3.892401,0.73996 -5.309524,1.2642 l -2.101687,0.77748 -4.977678,-0.0763 c -2.737723,-0.0419 -6.172322,-0.009 -7.632441,0.073 l -2.654762,0.14924 z"
       id="path859"
       transform="translate(13.211888,18.734345)" />
    <path
       style="fill:#3c3f3e;fill-opacity:0.47678;stroke-width:0.22123"
       d="m 44.231853,191.24942 c -5.522682,-2.00912 -7.285952,-3.00501 -8.600487,-4.85749 -0.486706,-0.68588 -1.70329,-2.10389 -2.70352,-3.15112 l -1.818599,-1.90406 -1.899578,-5.51496 -1.899579,-5.51496 0.07441,-3.20784 0.07441,-3.20784 2.136656,-5.47857 2.136656,-5.47857 2.060187,-2.6115 c 2.030223,-2.57352 2.150818,-2.67971 8.291549,-7.30153 5.624708,-4.23343 6.508387,-4.98859 9.076885,-7.7568 1.565035,-1.68672 3.959267,-4.0807 5.320514,-5.31995 1.799716,-1.63843 3.060675,-3.04901 4.621606,-5.17 2.535944,-3.44582 5.240248,-6.34518 10.383518,-11.13241 7.178243,-6.68135 8.623166,-7.86793 12.155375,-9.98206 3.020861,-1.80808 3.537444,-2.03851 5.823661,-2.59783 l 2.508754,-0.61375 4.570611,0.25549 c 3.713648,0.20759 5.330988,0.4108 8.626058,1.08378 l 4.05546,0.82828 2.33728,1.98841 c 1.94943,1.65844 3.13992,2.98997 7.17407,8.02405 4.49292,5.60655 4.94834,6.25833 6.40593,9.16794 1.43064,2.85585 1.85096,3.4653 4.76235,6.90531 1.75627,2.07516 3.70871,4.64377 4.33876,5.70801 l 1.14554,1.935 2.55207,1.46674 c 1.40363,0.8067 3.64715,2.27781 4.98559,3.26912 2.01156,1.48985 2.91304,1.98991 5.19891,2.88384 3.60019,1.40792 9.42988,4.31322 13.64294,6.79913 l 3.35574,1.98005 2.24838,2.9946 c 2.06829,2.75474 2.3353,3.22779 3.33347,5.90576 l 1.08509,2.91115 0.003,5.07832 0.003,5.07831 -0.82846,2.51716 c -0.81836,2.48647 -0.85345,2.5449 -2.87672,4.79031 -1.86377,2.06838 -2.34868,2.45784 -5.38352,4.32372 -3.25891,2.00365 -3.39942,2.06498 -6.13841,2.6794 -1.54173,0.34586 -4.97934,0.9432 -7.63912,1.32744 l -4.83596,0.69862 -5.00878,-0.35848 c -8.01241,-0.57345 -19.77779,-2.29619 -26.57872,-3.89177 -5.21795,-1.22419 -9.92646,-1.62046 -14.71181,-1.23814 -3.607635,0.28823 -4.256886,0.41718 -18.251488,3.62515 -2.616046,0.59968 -6.199975,1.30934 -7.964285,1.57704 -2.162979,0.32818 -3.892401,0.73996 -5.309524,1.2642 l -2.101687,0.77748 -4.977678,-0.0763 c -2.737723,-0.0419 -6.172322,-0.009 -7.632441,0.073 l -2.654762,0.14924 z"
       id="path861"
       transform="translate(13.211888,18.734345)" />
    <path
       style="fill:#3c3f3e;fill-opacity:0.47678;stroke-width:0.22123"
       d="m 44.231853,191.24942 c -5.522682,-2.00912 -7.285952,-3.00501 -8.600487,-4.85749 -0.486706,-0.68588 -1.70329,-2.10389 -2.70352,-3.15112 l -1.818599,-1.90406 -1.899578,-5.51496 -1.899579,-5.51496 0.07441,-3.20784 0.07441,-3.20784 2.136656,-5.47857 2.136656,-5.47857 2.060187,-2.6115 c 2.030223,-2.57352 2.150818,-2.67971 8.291549,-7.30153 5.624708,-4.23343 6.508387,-4.98859 9.076885,-7.7568 1.565035,-1.68672 3.959267,-4.0807 5.320514,-5.31995 1.799716,-1.63843 3.060675,-3.04901 4.621606,-5.17 2.535944,-3.44582 5.240248,-6.34518 10.383518,-11.13241 7.178243,-6.68135 8.623166,-7.86793 12.155375,-9.98206 3.020861,-1.80808 3.537444,-2.03851 5.823661,-2.59783 l 2.508754,-0.61375 4.570611,0.25549 c 3.713648,0.20759 5.330988,0.4108 8.626058,1.08378 l 4.05546,0.82828 2.33728,1.98841 c 1.94943,1.65844 3.13992,2.98997 7.17407,8.02405 4.49292,5.60655 4.94834,6.25833 6.40593,9.16794 1.43064,2.85585 1.85096,3.4653 4.76235,6.90531 1.75627,2.07516 3.70871,4.64377 4.33876,5.70801 l 1.14554,1.935 2.55207,1.46674 c 1.40363,0.8067 3.64715,2.27781 4.98559,3.26912 2.01156,1.48985 2.91304,1.98991 5.19891,2.88384 3.60019,1.40792 9.42988,4.31322 13.64294,6.79913 l 3.35574,1.98005 2.24838,2.9946 c 2.06829,2.75474 2.3353,3.22779 3.33347,5.90576 l 1.08509,2.91115 0.003,5.07832 0.003,5.07831 -0.82846,2.51716 c -0.81836,2.48647 -0.85345,2.5449 -2.87672,4.79031 -1.86377,2.06838 -2.34868,2.45784 -5.38352,4.32372 -3.25891,2.00365 -3.39942,2.06498 -6.13841,2.6794 -1.54173,0.34586 -4.97934,0.9432 -7.63912,1.32744 l -4.83596,0.69862 -5.00878,-0.35848 c -8.01241,-0.57345 -19.77779,-2.29619 -26.57872,-3.89177 -5.21795,-1.22419 -9.92646,-1.62046 -14.71181,-1.23814 -3.607635,0.28823 -4.256886,0.41718 -18.251488,3.62515 -2.616046,0.59968 -6.199975,1.30934 -7.964285,1.57704 -2.162979,0.32818 -3.892401,0.73996 -5.309524,1.2642 l -2.101687,0.77748 -4.977678,-0.0763 c -2.737723,-0.0419 -6.172322,-0.009 -7.632441,0.073 l -2.654762,0.14924 z"
       id="path863"
       transform="translate(13.211888,18.734345)" />
    <path
       style="fill:#3c3f3e;fill-opacity:0.47678;stroke-width:0.22123"
       d="m 44.231853,191.24942 c -5.522682,-2.00912 -7.285952,-3.00501 -8.600487,-4.85749 -0.486706,-0.68588 -1.70329,-2.10389 -2.70352,-3.15112 l -1.818599,-1.90406 -1.899578,-5.51496 -1.899579,-5.51496 0.07441,-3.20784 0.07441,-3.20784 2.136656,-5.47857 2.136656,-5.47857 2.060187,-2.6115 c 2.030223,-2.57352 2.150818,-2.67971 8.291549,-7.30153 5.624708,-4.23343 6.508387,-4.98859 9.076885,-7.7568 1.565035,-1.68672 3.959267,-4.0807 5.320514,-5.31995 1.799716,-1.63843 3.060675,-3.04901 4.621606,-5.17 2.535944,-3.44582 5.240248,-6.34518 10.383518,-11.13241 7.178243,-6.68135 8.623166,-7.86793 12.155375,-9.98206 3.020861,-1.80808 3.537444,-2.03851 5.823661,-2.59783 l 2.508754,-0.61375 4.570611,0.25549 c 3.713648,0.20759 5.330988,0.4108 8.626058,1.08378 l 4.05546,0.82828 2.33728,1.98841 c 1.94943,1.65844 3.13992,2.98997 7.17407,8.02405 4.49292,5.60655 4.94834,6.25833 6.40593,9.16794 1.43064,2.85585 1.85096,3.4653 4.76235,6.90531 1.75627,2.07516 3.70871,4.64377 4.33876,5.70801 l 1.14554,1.935 2.55207,1.46674 c 1.40363,0.8067 3.64715,2.27781 4.98559,3.26912 2.01156,1.48985 2.91304,1.98991 5.19891,2.88384 3.60019,1.40792 9.42988,4.31322 13.64294,6.79913 l 3.35574,1.98005 2.24838,2.9946 c 2.06829,2.75474 2.3353,3.22779 3.33347,5.90576 l 1.08509,2.91115 0.003,5.07832 0.003,5.07831 -0.82846,2.51716 c -0.81836,2.48647 -0.85345,2.5449 -2.87672,4.79031 -1.86377,2.06838 -2.34868,2.45784 -5.38352,4.32372 -3.25891,2.00365 -3.39942,2.06498 -6.13841,2.6794 -1.54173,0.34586 -4.97934,0.9432 -7.63912,1.32744 l -4.83596,0.69862 -5.00878,-0.35848 c -8.01241,-0.57345 -19.77779,-2.29619 -26.57872,-3.89177 -5.21795,-1.22419 -9.92646,-1.62046 -14.71181,-1.23814 -3.607635,0.28823 -4.256886,0.41718 -18.251488,3.62515 -2.616046,0.59968 -6.199975,1.30934 -7.964285,1.57704 -2.162979,0.32818 -3.892401,0.73996 -5.309524,1.2642 l -2.101687,0.77748 -4.977678,-0.0763 c -2.737723,-0.0419 -6.172322,-0.009 -7.632441,0.073 l -2.654762,0.14924 z"
       id="path865"
       transform="translate(13.211888,18.734345)" />
    <path
       style="fill:#3c3f3e;fill-opacity:0.47678;stroke-width:0.22123"
       d="m 44.231853,191.24942 c -5.522682,-2.00912 -7.285952,-3.00501 -8.600487,-4.85749 -0.486706,-0.68588 -1.70329,-2.10389 -2.70352,-3.15112 l -1.818599,-1.90406 -1.899578,-5.51496 -1.899579,-5.51496 0.07441,-3.20784 0.07441,-3.20784 2.136656,-5.47857 2.136656,-5.47857 2.060187,-2.6115 c 2.030223,-2.57352 2.150818,-2.67971 8.291549,-7.30153 5.624708,-4.23343 6.508387,-4.98859 9.076885,-7.7568 1.565035,-1.68672 3.959267,-4.0807 5.320514,-5.31995 1.799716,-1.63843 3.060675,-3.04901 4.621606,-5.17 2.535944,-3.44582 5.240248,-6.34518 10.383518,-11.13241 7.178243,-6.68135 8.623166,-7.86793 12.155375,-9.98206 3.020861,-1.80808 3.537444,-2.03851 5.823661,-2.59783 l 2.508754,-0.61375 4.570611,0.25549 c 3.713648,0.20759 5.330988,0.4108 8.626058,1.08378 l 4.05546,0.82828 2.33728,1.98841 c 1.94943,1.65844 3.13992,2.98997 7.17407,8.02405 4.49292,5.60655 4.94834,6.25833 6.40593,9.16794 1.43064,2.85585 1.85096,3.4653 4.76235,6.90531 1.75627,2.07516 3.70871,4.64377 4.33876,5.70801 l 1.14554,1.935 2.55207,1.46674 c 1.40363,0.8067 3.64715,2.27781 4.98559,3.26912 2.01156,1.48985 2.91304,1.98991 5.19891,2.88384 3.60019,1.40792 9.42988,4.31322 13.64294,6.79913 l 3.35574,1.98005 2.24838,2.9946 c 2.06829,2.75474 2.3353,3.22779 3.33347,5.90576 l 1.08509,2.91115 0.003,5.07832 0.003,5.07831 -0.82846,2.51716 c -0.81836,2.48647 -0.85345,2.5449 -2.87672,4.79031 -1.86377,2.06838 -2.34868,2.45784 -5.38352,4.32372 -3.25891,2.00365 -3.39942,2.06498 -6.13841,2.6794 -1.54173,0.34586 -4.97934,0.9432 -7.63912,1.32744 l -4.83596,0.69862 -5.00878,-0.35848 c -8.01241,-0.57345 -19.77779,-2.29619 -26.57872,-3.89177 -5.21795,-1.22419 -9.92646,-1.62046 -14.71181,-1.23814 -3.607635,0.28823 -4.256886,0.41718 -18.251488,3.62515 -2.616046,0.59968 -6.199975,1.30934 -7.964285,1.57704 -2.162979,0.32818 -3.892401,0.73996 -5.309524,1.2642 l -2.101687,0.77748 -4.977678,-0.0763 c -2.737723,-0.0419 -6.172322,-0.009 -7.632441,0.073 l -2.654762,0.14924 z"
       id="path867"
       transform="translate(13.211888,18.734345)" />
    <path
       style="fill:#3c3f3e;fill-opacity:0.47678;stroke-width:0.22123"
       d="m 44.231853,191.24942 c -5.522682,-2.00912 -7.285952,-3.00501 -8.600487,-4.85749 -0.486706,-0.68588 -1.70329,-2.10389 -2.70352,-3.15112 l -1.818599,-1.90406 -1.899578,-5.51496 -1.899579,-5.51496 0.07441,-3.20784 0.07441,-3.20784 2.136656,-5.47857 2.136656,-5.47857 2.060187,-2.6115 c 2.030223,-2.57352 2.150818,-2.67971 8.291549,-7.30153 5.624708,-4.23343 6.508387,-4.98859 9.076885,-7.7568 1.565035,-1.68672 3.959267,-4.0807 5.320514,-5.31995 1.799716,-1.63843 3.060675,-3.04901 4.621606,-5.17 2.535944,-3.44582 5.240248,-6.34518 10.383518,-11.13241 7.178243,-6.68135 8.623166,-7.86793 12.155375,-9.98206 3.020861,-1.80808 3.537444,-2.03851 5.823661,-2.59783 l 2.508754,-0.61375 4.570611,0.25549 c 3.713648,0.20759 5.330988,0.4108 8.626058,1.08378 l 4.05546,0.82828 2.33728,1.98841 c 1.94943,1.65844 3.13992,2.98997 7.17407,8.02405 4.49292,5.60655 4.94834,6.25833 6.40593,9.16794 1.43064,2.85585 1.85096,3.4653 4.76235,6.90531 1.75627,2.07516 3.70871,4.64377 4.33876,5.70801 l 1.14554,1.935 2.55207,1.46674 c 1.40363,0.8067 3.64715,2.27781 4.98559,3.26912 2.01156,1.48985 2.91304,1.98991 5.19891,2.88384 3.60019,1.40792 9.42988,4.31322 13.64294,6.79913 l 3.35574,1.98005 2.24838,2.9946 c 2.06829,2.75474 2.3353,3.22779 3.33347,5.90576 l 1.08509,2.91115 0.003,5.07832 0.003,5.07831 -0.82846,2.51716 c -0.81836,2.48647 -0.85345,2.5449 -2.87672,4.79031 -1.86377,2.06838 -2.34868,2.45784 -5.38352,4.32372 -3.25891,2.00365 -3.39942,2.06498 -6.13841,2.6794 -1.54173,0.34586 -4.97934,0.9432 -7.63912,1.32744 l -4.83596,0.69862 -5.00878,-0.35848 c -8.01241,-0.57345 -19.77779,-2.29619 -26.57872,-3.89177 -5.21795,-1.22419 -9.92646,-1.62046 -14.71181,-1.23814 -3.607635,0.28823 -4.256886,0.41718 -18.251488,3.62515 -2.616046,0.59968 -6.199975,1.30934 -7.964285,1.57704 -2.162979,0.32818 -3.892401,0.73996 -5.309524,1.2642 l -2.101687,0.77748 -4.977678,-0.0763 c -2.737723,-0.0419 -6.172322,-0.009 -7.632441,0.073 l -2.654762,0.14924 z"
       id="path869"
       transform="translate(13.211888,18.734345)" />
    <path
       style="fill:#3c3f3e;fill-opacity:0.47678;stroke-width:0.22123"
       d="m 44.231853,191.24942 c -5.522682,-2.00912 -7.285952,-3.00501 -8.600487,-4.85749 -0.486706,-0.68588 -1.70329,-2.10389 -2.70352,-3.15112 l -1.818599,-1.90406 -1.899578,-5.51496 -1.899579,-5.51496 0.07441,-3.20784 0.07441,-3.20784 2.136656,-5.47857 2.136656,-5.47857 2.060187,-2.6115 c 2.030223,-2.57352 2.150818,-2.67971 8.291549,-7.30153 5.624708,-4.23343 6.508387,-4.98859 9.076885,-7.7568 1.565035,-1.68672 3.959267,-4.0807 5.320514,-5.31995 1.799716,-1.63843 3.060675,-3.04901 4.621606,-5.17 2.535944,-3.44582 5.240248,-6.34518 10.383518,-11.13241 7.178243,-6.68135 8.623166,-7.86793 12.155375,-9.98206 3.020861,-1.80808 3.537444,-2.03851 5.823661,-2.59783 l 2.508754,-0.61375 4.570611,0.25549 c 3.713648,0.20759 5.330988,0.4108 8.626058,1.08378 l 4.05546,0.82828 2.33728,1.98841 c 1.94943,1.65844 3.13992,2.98997 7.17407,8.02405 4.49292,5.60655 4.94834,6.25833 6.40593,9.16794 1.43064,2.85585 1.85096,3.4653 4.76235,6.90531 1.75627,2.07516 3.70871,4.64377 4.33876,5.70801 l 1.14554,1.935 2.55207,1.46674 c 1.40363,0.8067 3.64715,2.27781 4.98559,3.26912 2.01156,1.48985 2.91304,1.98991 5.19891,2.88384 3.60019,1.40792 9.42988,4.31322 13.64294,6.79913 l 3.35574,1.98005 2.24838,2.9946 c 2.06829,2.75474 2.3353,3.22779 3.33347,5.90576 l 1.08509,2.91115 0.003,5.07832 0.003,5.07831 -0.82846,2.51716 c -0.81836,2.48647 -0.85345,2.5449 -2.87672,4.79031 -1.86377,2.06838 -2.34868,2.45784 -5.38352,4.32372 -3.25891,2.00365 -3.39942,2.06498 -6.13841,2.6794 -1.54173,0.34586 -4.97934,0.9432 -7.63912,1.32744 l -4.83596,0.69862 -5.00878,-0.35848 c -8.01241,-0.57345 -19.77779,-2.29619 -26.57872,-3.89177 -5.21795,-1.22419 -9.92646,-1.62046 -14.71181,-1.23814 -3.607635,0.28823 -4.256886,0.41718 -18.251488,3.62515 -2.616046,0.59968 -6.199975,1.30934 -7.964285,1.57704 -2.162979,0.32818 -3.892401,0.73996 -5.309524,1.2642 l -2.101687,0.77748 -4.977678,-0.0763 c -2.737723,-0.0419 -6.172322,-0.009 -7.632441,0.073 l -2.654762,0.14924 z"
       id="path871"
       transform="translate(13.211888,18.734345)" />
    <path
       style="fill:#3c3f3e;fill-opacity:0.47678;stroke-width:0.22123"
       d="m 19.149719,128.44726 c -1.736788,-0.19487 -4.947389,-1.66751 -7.33651,-3.36513 l -2.3588326,-1.6761 -2.0046423,-3.31845 c -1.1025532,-1.82515 -2.6436898,-4.66242 -3.4247482,-6.30506 -1.2327692,-2.59262 -1.5153681,-3.43896 -2.142242,-6.41567 l -0.7221362,-3.42907 0.2805884,-3.87153 c 0.1543237,-2.129338 0.5594531,-5.364829 0.9002876,-7.189978 0.8405948,-4.501335 2.3970719,-8.214871 5.3502903,-12.765041 1.9927577,-3.070341 2.2452563,-3.36174 4.516741,-5.212599 1.323292,-1.07825 3.373482,-2.685819 4.555977,-3.572375 l 2.149992,-1.611921 2.827687,0.256014 c 1.555229,0.140807 3.043156,0.299656 3.306507,0.352996 0.26335,0.05334 1.563544,1.037163 2.889316,2.186272 2.017407,1.748577 2.853529,2.692708 5.127206,5.789532 2.657058,3.618998 2.750263,3.785652 4.244891,7.590072 l 1.528181,3.889828 -0.224631,2.875992 c -0.564623,7.228981 -0.93733,11.342238 -1.343075,14.822418 -0.427164,3.66391 -0.476784,3.85968 -1.923757,7.58993 -1.397252,3.60206 -1.588032,3.95609 -3.218859,5.97321 -3.431225,4.24397 -5.160835,5.97273 -6.803104,6.79976 -1.414493,0.71233 -1.650912,0.76216 -3.459535,0.72918 -1.067707,-0.0195 -2.289724,-0.0745 -2.715592,-0.12228 z"
       id="path873"
       transform="translate(13.211888,18.734345)" />
    <path
       style="fill:#3c3f3e;fill-opacity:0.47678;stroke-width:0.22123"
       d="m 66.904108,63.595163 c -1.80334,-0.681588 -2.447761,-1.071783 -4.169472,-2.524588 -1.21217,-1.022847 -3.098415,-2.992868 -4.660086,-4.867064 -2.616867,-3.140557 -2.627705,-3.158355 -4.207218,-6.90958 -0.870976,-2.068501 -2.257096,-5.602653 -3.080267,-7.85367 -1.452938,-3.973159 -1.508243,-4.201482 -1.892539,-7.813345 -0.44122,-4.146866 -0.510346,-3.320968 0.984747,-11.765524 0.765336,-4.322749 0.989848,-5.176333 2.007509,-7.63244 0.902839,-2.178988 1.505691,-3.241019 2.843011,-5.0084733 1.677253,-2.2167225 1.731023,-2.2626755 4.5732,-3.9083297 3.974074,-2.3010361 6.595589,-3.3687913 9.070436,-3.6944305 1.884454,-0.2479556 2.115458,-0.230846 4.313988,0.3195217 1.277605,0.3198283 2.596318,0.6896099 2.930473,0.8217369 0.936976,0.3704849 4.530147,4.244263 4.781626,5.1550432 0.248223,0.8989907 0.790655,1.7156999 2.357495,3.5495547 1.061064,1.241885 1.185957,1.519746 1.939049,4.313988 0.953821,3.53902 1.264727,6.404506 1.264981,11.658822 4.42e-4,8.780641 -1.552837,18.95433 -4.040486,26.464707 l -1.379467,4.164699 -1.920085,2.150479 -1.920083,2.150479 -3.721286,1.04356 c -2.046707,0.573958 -3.771061,1.031745 -3.831899,1.017303 -0.06084,-0.01445 -1.070471,-0.389044 -2.243627,-0.832449 z"
       id="path875"
       transform="translate(13.211888,18.734345)" />
    <path
       style="fill:#3c3f3e;fill-opacity:0.47678;stroke-width:0.22123"
       d="m 127.88434,67.415646 c -1.4608,-0.659321 -2.12073,-1.145145 -3.77936,-2.782275 -1.80352,-1.780155 -2.18139,-2.305169 -3.68629,-5.121774 -1.97021,-3.687491 -3.20332,-7.433404 -5.27844,-16.034676 -1.28468,-5.324899 -1.29687,-5.406648 -1.32031,-8.849206 -0.0437,-6.415181 0.20048,-9.553712 1.05337,-13.540629 l 0.78088,-3.650297 2.05996,-3.432933 c 1.82625,-3.043451 2.31926,-3.683488 4.34546,-5.6413685 1.25703,-1.2146403 3.13161,-2.9146843 4.16573,-3.7778762 l 1.88023,-1.5694393 2.98661,-0.678444 c 1.64263,-0.3731441 3.83281,-0.7936059 4.86706,-0.9343596 l 1.88046,-0.2559157 2.32292,0.8558953 c 2.05264,0.75631 2.65198,1.1119841 5.15112,3.0568744 l 2.82821,2.2009792 3.31093,6.4954074 3.31093,6.495406 v 8.091062 8.091064 l -0.7786,4.145032 c -0.42823,2.279768 -1.22157,5.937364 -1.76298,8.127992 l -0.98438,3.982957 -1.91349,2.993952 c -1.82562,2.856475 -2.05197,3.112575 -4.92923,5.577261 -1.65866,1.420822 -3.51352,3.118347 -4.1219,3.772282 -0.9356,1.005648 -1.44726,1.327622 -3.31845,2.088222 -2.04418,0.830909 -2.40565,0.906634 -4.75645,0.996429 -2.5384,0.09696 -2.54815,0.09537 -4.31399,-0.701622 z"
       id="path877"
       transform="translate(13.211888,18.734345)" />
    <path
       style="fill:#3c3f3e;fill-opacity:0.47678;stroke-width:0.22123"
       d="m 44.231853,191.24942 c -5.522682,-2.00912 -7.285952,-3.00501 -8.600487,-4.85749 -0.486706,-0.68588 -1.70329,-2.10389 -2.70352,-3.15112 l -1.818599,-1.90406 -1.899578,-5.51496 -1.899579,-5.51496 0.07441,-3.20784 0.07441,-3.20784 2.136656,-5.47857 2.136656,-5.47857 2.060187,-2.6115 c 2.030223,-2.57352 2.150818,-2.67971 8.291549,-7.30153 5.624708,-4.23343 6.508387,-4.98859 9.076885,-7.7568 1.565035,-1.68672 3.959267,-4.0807 5.320514,-5.31995 1.799716,-1.63843 3.060675,-3.04901 4.621606,-5.17 2.535944,-3.44582 5.240248,-6.34518 10.383518,-11.13241 7.178243,-6.68135 8.623166,-7.86793 12.155375,-9.98206 3.020861,-1.80808 3.537444,-2.03851 5.823661,-2.59783 l 2.508754,-0.61375 4.570611,0.25549 c 3.713648,0.20759 5.330988,0.4108 8.626058,1.08378 l 4.05546,0.82828 2.33728,1.98841 c 1.94943,1.65844 3.13992,2.98997 7.17407,8.02405 4.49292,5.60655 4.94834,6.25833 6.40593,9.16794 1.43064,2.85585 1.85096,3.4653 4.76235,6.90531 1.75627,2.07516 3.70871,4.64377 4.33876,5.70801 l 1.14554,1.935 2.55207,1.46674 c 1.40363,0.8067 3.64715,2.27781 4.98559,3.26912 2.01156,1.48985 2.91304,1.98991 5.19891,2.88384 3.60019,1.40792 9.42988,4.31322 13.64294,6.79913 l 3.35574,1.98005 2.24838,2.9946 c 2.06829,2.75474 2.3353,3.22779 3.33347,5.90576 l 1.08509,2.91115 0.003,5.07832 0.003,5.07831 -0.82846,2.51716 c -0.81836,2.48647 -0.85345,2.5449 -2.87672,4.79031 -1.86377,2.06838 -2.34868,2.45784 -5.38352,4.32372 -3.25891,2.00365 -3.39942,2.06498 -6.13841,2.6794 -1.54173,0.34586 -4.97934,0.9432 -7.63912,1.32744 l -4.83596,0.69862 -5.00878,-0.35848 c -8.01241,-0.57345 -19.77779,-2.29619 -26.57872,-3.89177 -5.21795,-1.22419 -9.92646,-1.62046 -14.71181,-1.23814 -3.607635,0.28823 -4.256886,0.41718 -18.251488,3.62515 -2.616046,0.59968 -6.199975,1.30934 -7.964285,1.57704 -2.162979,0.32818 -3.892401,0.73996 -5.309524,1.2642 l -2.101687,0.77748 -4.977678,-0.0763 c -2.737723,-0.0419 -6.172322,-0.009 -7.632441,0.073 l -2.654762,0.14924 z"
       id="path879"
       transform="translate(13.211888,18.734345)" />
    <path
       style="fill:#3c3f3e;fill-opacity:0.47678;stroke-width:0.22123"
       d="m 127.88434,67.415646 c -1.4608,-0.659321 -2.12073,-1.145145 -3.77936,-2.782275 -1.80352,-1.780155 -2.18139,-2.305169 -3.68629,-5.121774 -1.97021,-3.687491 -3.20332,-7.433404 -5.27844,-16.034676 -1.28468,-5.324899 -1.29687,-5.406648 -1.32031,-8.849206 -0.0437,-6.415181 0.20048,-9.553712 1.05337,-13.540629 l 0.78088,-3.650297 2.05996,-3.432933 c 1.82625,-3.043451 2.31926,-3.683488 4.34546,-5.6413685 1.25703,-1.2146403 3.13161,-2.9146843 4.16573,-3.7778762 l 1.88023,-1.5694393 2.98661,-0.678444 c 1.64263,-0.3731441 3.83281,-0.7936059 4.86706,-0.9343596 l 1.88046,-0.2559157 2.32292,0.8558953 c 2.05264,0.75631 2.65198,1.1119841 5.15112,3.0568744 l 2.82821,2.2009792 3.31093,6.4954074 3.31093,6.495406 v 8.091062 8.091064 l -0.7786,4.145032 c -0.42823,2.279768 -1.22157,5.937364 -1.76298,8.127992 l -0.98438,3.982957 -1.91349,2.993952 c -1.82562,2.856475 -2.05197,3.112575 -4.92923,5.577261 -1.65866,1.420822 -3.51352,3.118347 -4.1219,3.772282 -0.9356,1.005648 -1.44726,1.327622 -3.31845,2.088222 -2.04418,0.830909 -2.40565,0.906634 -4.75645,0.996429 -2.5384,0.09696 -2.54815,0.09537 -4.31399,-0.701622 z"
       id="path881"
       transform="translate(13.211888,18.734345)" />
    <path
       style="fill:#3c3f3e;fill-opacity:0.47678;stroke-width:0.22123"
       d="m 19.149719,128.44726 c -1.736788,-0.19487 -4.947389,-1.66751 -7.33651,-3.36513 l -2.3588326,-1.6761 -2.0046423,-3.31845 c -1.1025532,-1.82515 -2.6436898,-4.66242 -3.4247482,-6.30506 -1.2327692,-2.59262 -1.5153681,-3.43896 -2.142242,-6.41567 l -0.7221362,-3.42907 0.2805884,-3.87153 c 0.1543237,-2.129338 0.5594531,-5.364829 0.9002876,-7.189978 0.8405948,-4.501335 2.3970719,-8.214871 5.3502903,-12.765041 1.9927577,-3.070341 2.2452563,-3.36174 4.516741,-5.212599 1.323292,-1.07825 3.373482,-2.685819 4.555977,-3.572375 l 2.149992,-1.611921 2.827687,0.256014 c 1.555229,0.140807 3.043156,0.299656 3.306507,0.352996 0.26335,0.05334 1.563544,1.037163 2.889316,2.186272 2.017407,1.748577 2.853529,2.692708 5.127206,5.789532 2.657058,3.618998 2.750263,3.785652 4.244891,7.590072 l 1.528181,3.889828 -0.224631,2.875992 c -0.564623,7.228981 -0.93733,11.342238 -1.343075,14.822418 -0.427164,3.66391 -0.476784,3.85968 -1.923757,7.58993 -1.397252,3.60206 -1.588032,3.95609 -3.218859,5.97321 -3.431225,4.24397 -5.160835,5.97273 -6.803104,6.79976 -1.414493,0.71233 -1.650912,0.76216 -3.459535,0.72918 -1.067707,-0.0195 -2.289724,-0.0745 -2.715592,-0.12228 z"
       id="path883"
       transform="translate(13.211888,18.734345)" />
  </g>
  <path
     style="fill:#474545;fill-opacity:1;stroke:#000000;stroke-width:1px;stroke-linecap:butt;stroke-linejoin:miter;stroke-opacity:1"
     d="m 61.342675,3.3886711 4.424604,-1.991072 4.424603,-0.66368998 c 0,0 5.088293,1.10615098 5.973214,1.54861098 0.884921,0.44246 4.867064,4.424603 4.867064,5.530754 0,1.106151 3.318452,4.4246029 3.318452,4.4246029 l 1.769841,6.415675 0.442461,5.088293 v 7.521826 l -0.663691,7.964286 -1.991071,10.619047 -2.875992,8.627976 -3.982143,4.424604 -5.530754,1.548611 -2.212302,0.66369 -4.867063,-1.769841 -4.203373,-3.539683 -5.309524,-6.415674 -3.097222,-7.300595 -3.097223,-8.406747 -0.88492,-7.964285 1.106151,-5.973215 1.10615,-6.636904 2.433532,-5.973215 3.539683,-4.6458329 z"
     id="path1489" />
  <path
     style="fill:#474545;fill-opacity:1;stroke:#000000;stroke-width:1px;stroke-linecap:butt;stroke-linejoin:miter;stroke-opacity:1"
     d="m 13.999422,72.633711 4.645833,-3.539683 7.079365,0.66369 5.088294,4.424604 5.530754,7.521823 3.097222,7.96429 -0.442461,5.97321 -0.66369,7.964295 -0.884921,7.74305 -3.097222,7.96429 -3.982143,4.86706 -3.097222,3.31845 -3.318452,1.76985 -5.530754,-0.22123 -4.645834,-1.76985 -4.8670629,-3.53968 -3.760913,-6.19444 -3.097222,-6.41568 -1.54861098,-7.30059 0.66368998,-7.964295 1.106151,-6.19444 2.654762,-6.41568 4.424603,-6.858132 z"
     id="path1491" />
  <path
     style="fill:#474545;fill-opacity:1;stroke:#000000;stroke-width:1px;stroke-linecap:butt;stroke-linejoin:miter;stroke-opacity:1"
     d="m 115.1016,17.104941 3.98214,-6.636905 4.20338,-4.2033729 4.4246,-3.760913 5.53076,-1.327381 4.64583,-0.66368998 4.86706,1.76984098 5.97322,4.645833 3.98214,7.9642859 2.65476,5.088294 v 7.743055 8.849207 l -1.54861,8.185516 -1.99107,8.185515 -3.98214,6.194445 -6.41568,5.530754 -1.76984,1.991071 -4.86706,1.991072 -5.0883,0.22123 -3.98214,-1.769841 -4.20337,-4.203373 -3.31846,-6.194445 -2.43353,-7.964286 -2.43353,-10.176587 -0.22123,-5.751984 0.44246,-8.627976 z"
     id="path1493" />
  <path
     style="fill:#474545;fill-opacity:1;stroke:#000000;stroke-width:1px;stroke-linecap:butt;stroke-linejoin:miter;stroke-opacity:1"
     d="m 167.75438,83.252755 5.08829,-5.973211 5.97322,-4.424603 4.20337,-2.875992 4.86706,-0.663691 4.64584,2.212302 3.53968,4.645833 1.10615,4.645833 1.32738,6.858139 -0.22123,5.97321 -0.88492,6.636915 -2.2123,6.19444 -3.53968,5.97321 -4.42461,7.07937 -5.08829,4.4246 -5.53075,4.20338 -4.42461,1.10615 -5.97321,-0.66369 -4.4246,-2.65477 -3.76092,-4.4246 -1.54861,-4.86706 -1.32738,-6.19445 1.76984,-5.75198 2.2123,-6.858145 4.64584,-8.8492 z"
     id="path1495" />
  <path
     style="fill:none;stroke:#000000;stroke-width:1px;stroke-linecap:butt;stroke-linejoin:miter;stroke-opacity:1"
     d="m 83.908152,113.11883 -6.194445,5.97322 -5.751984,5.53075 -2.875992,4.42461 -4.645833,4.86706 -4.203373,3.76091 -2.433532,3.76091 -6.636905,5.0883 -3.982143,3.09722 -6.415674,5.75198 -3.097222,5.0883 -2.212302,4.4246 v 4.86707 l 0.884921,5.75198 2.212301,3.76091 5.309524,3.53968 4.424603,1.99108 6.194445,0.66369 8.627976,-0.44246 7.079365,-1.54861 9.291667,-2.65477 7.079365,-1.76984 8.406748,-0.88492 8.849198,-0.22123 8.40675,1.10615 6.6369,0.88492 6.63691,1.10615 7.52182,0.88492 8.62798,0.66369 7.96429,0.44246 6.19444,-1.54861 4.4246,-3.09722 3.31846,-5.30952 1.32738,-5.30953 -0.88492,-4.4246 -3.31846,-4.20337 -6.85813,-3.98215 -7.96429,-3.09722 -7.52182,-4.64583 -6.19445,-3.98214 -5.08829,-5.75199 -4.86706,-6.6369 -3.76092,-6.41568 -5.08829,-5.97321 -3.76091,-5.30953 -5.97322,-3.98214 -4.424598,-0.88492 -5.53075,-0.22123 -5.53076,1.10615 z"
     id="path1497" />
  <path
     style="fill:#474545;fill-opacity:1;stroke:#000000;stroke-width:1px;stroke-linecap:butt;stroke-linejoin:miter;stroke-opacity:1"
     d="m 91.872442,99.845025 8.849198,0.442465 8.84921,1.76984 5.08829,4.4246 3.53968,4.4246 5.97322,7.52183 3.09722,6.19444 6.19445,7.3006 2.43353,3.98214 5.30952,3.09722 4.4246,3.31846 6.19445,2.43353 8.18551,4.20337 5.53076,3.31845 4.64583,6.19445 2.2123,5.97321 v 10.39782 l -1.76984,5.30952 -4.20337,4.64584 -6.85814,4.20337 -6.19444,1.32738 -9.29167,1.32738 -9.51289,-0.66369 -11.50397,-1.54861 -7.74306,-1.32738 -6.41567,-1.54861 -7.3006,-0.66369 -6.636898,0.44246 -5.97322,1.32738 -6.858132,1.54861 -6.636904,1.54861 -7.079365,1.10615 -4.203373,1.54861 -8.849207,-0.22123 -6.194444,0.44246 -4.867064,-1.76984 -5.088293,-1.76984 -3.097223,-1.99107 -2.654762,-3.53968 -2.875992,-2.876 -1.991071,-5.75198 -1.769841,-5.08829 v -6.85814 l 2.433531,-6.41567 1.991072,-5.0883 4.203373,-5.30952 6.858135,-5.08829 5.751984,-4.42461 5.530754,-5.97321 4.867063,-4.42461 4.424604,-5.97321 4.424603,-4.64583 6.636905,-6.19445 5.973214,-5.30952 6.636905,-3.98214 z"
     id="path1499" />
</svg>
