<?xml version="1.0" standalone="no"?>
<!DOCTYPE svg PUBLIC "-//W3C//DTD SVG 20010904//EN"
 "http://www.w3.org/TR/2001/REC-SVG-20010904/DTD/svg10.dtd">
<svg version="1.0" xmlns="http://www.w3.org/2000/svg"
 width="1041.000000pt" height="1280.000000pt" viewBox="0 0 1041.000000 1280.000000"
 preserveAspectRatio="xMidYMid meet">
<metadata>
Created by potrace 1.15, written by Peter Selinger 2001-2017
</metadata>
<g transform="translate(0.000000,1280.000000) scale(0.100000,-0.100000)"
fill="#000000" stroke="none">
<path d="M3830 12779 c-152 -54 -400 -104 -670 -135 -119 -14 -309 -18 -1075
-24 -558 -5 -970 -12 -1030 -19 -325 -36 -465 -63 -522 -102 -304 -210 -505
-1191 -529 -2589 -11 -608 27 -1208 92 -1479 28 -112 65 -179 148 -260 140
-140 265 -200 390 -187 238 24 446 298 621 815 l42 124 7 -99 c10 -146 24
-210 67 -300 56 -119 166 -214 309 -268 43 -16 49 -16 124 4 191 49 324 173
419 394 21 49 69 195 107 325 61 209 91 305 115 363 6 16 9 16 33 -2 33 -23
108 -48 267 -89 106 -28 135 -31 263 -31 135 0 324 20 376 40 21 8 72 -78
1002 -1693 l980 -1702 -27 -31 c-14 -18 -35 -53 -44 -78 -16 -41 -16 -54 -6
-102 7 -30 24 -68 38 -84 l25 -30 -32 0 c-42 0 -90 -47 -90 -87 0 -46 28 -129
54 -160 38 -45 115 -81 197 -94 41 -6 85 -17 99 -24 14 -7 60 -53 103 -101 58
-66 90 -116 128 -193 57 -118 134 -240 217 -345 89 -112 222 -256 236 -256 17
0 716 -1214 716 -1243 0 -42 11 -65 28 -60 13 3 67 -82 237 -378 l220 -383 0
-80 c1 -45 5 -129 9 -189 l9 -108 -54 6 c-30 3 -101 10 -159 15 -146 14 -391
14 -474 -1 -79 -13 -122 -45 -176 -130 -32 -49 -50 -67 -30 -29 10 18 8 19
-15 10 -108 -41 -197 -125 -253 -240 -34 -70 -37 -81 -37 -170 0 -82 4 -103
26 -151 15 -31 43 -75 64 -97 39 -44 165 -132 188 -132 7 0 17 -4 22 -9 21
-20 181 -64 455 -127 85 -19 163 -37 173 -40 121 -30 212 -47 422 -79 22 -3
141 -15 265 -25 124 -11 277 -24 340 -30 214 -20 342 -5 590 70 304 91 384
130 505 250 115 112 184 294 157 411 -16 67 -35 105 -77 154 l-35 40 -1 -30
c-1 -30 -1 -30 -9 5 -4 19 -20 73 -34 120 -60 192 -88 470 -67 675 6 61 16
180 21 265 14 212 26 340 33 346 3 3 38 10 77 15 120 17 228 71 278 139 l21
28 -35 48 c-67 94 -89 226 -64 381 6 34 35 149 65 255 30 106 62 231 71 278 9
46 27 106 40 132 31 62 61 190 69 298 5 66 17 113 55 215 66 177 99 294 113
396 11 85 10 88 -23 185 -89 265 -214 501 -366 689 -17 22 -62 101 -98 175
-37 74 -85 158 -107 186 -78 102 -213 211 -314 254 -33 14 -46 26 -51 47 -3
15 -12 50 -19 78 -15 52 -12 65 9 50 71 -52 56 -52 179 -11 330 110 520 251
581 430 9 26 47 91 85 144 96 135 159 245 240 413 325 677 370 1410 120 1936
-98 207 -285 422 -463 533 -48 30 -118 81 -154 113 -86 76 -135 110 -230 156
-406 201 -1034 199 -1567 -5 -82 -32 -111 -50 -217 -137 -297 -243 -378 -342
-378 -461 0 -44 54 -109 106 -126 19 -6 34 -14 34 -16 0 -3 -10 -24 -21 -46
-57 -112 -122 -356 -136 -507 -3 -39 -16 -85 -29 -113 -29 -57 -32 -138 -8
-183 9 -16 29 -93 44 -170 31 -163 36 -153 -80 -154 -133 -2 -147 -7 -221 -82
-108 -109 -144 -212 -105 -302 19 -45 81 -103 142 -133 46 -22 66 -26 146 -25
85 0 120 5 172 27 16 6 18 4 13 -17 -3 -13 -11 -86 -18 -163 -14 -177 -2 -308
47 -478 19 -67 35 -130 36 -138 0 -8 6 -22 13 -30 6 -8 22 -36 34 -62 71 -150
225 -316 375 -405 48 -29 92 -53 97 -55 5 -2 2 -22 -8 -46 -15 -35 -24 -43
-53 -48 -19 -3 -51 -10 -71 -15 -45 -11 -183 -94 -249 -149 -108 -90 -196
-239 -224 -379 -11 -53 -25 -88 -54 -130 -40 -58 -122 -196 -185 -312 -61
-111 -271 -388 -285 -374 -3 2 5 32 18 65 29 78 24 144 -14 195 -23 30 -33 35
-69 35 -77 0 -189 -74 -234 -154 -9 -16 -17 -11 -68 43 -51 53 -92 86 -160
126 -15 9 -15 12 -1 40 19 36 20 64 5 116 -11 34 -18 40 -62 55 -33 11 -65 14
-96 10 -25 -3 -57 -7 -69 -8 -22 -3 -116 161 -1078 1866 l-1054 1868 59 63
c156 167 257 369 306 612 22 107 32 316 23 471 -5 70 -9 222 -10 337 l-3 210
37 130 c20 72 41 168 48 215 19 147 18 145 54 158 29 11 34 20 69 124 52 159
60 207 55 323 -4 94 -8 108 -47 189 -70 144 -225 287 -436 402 -38 21 -74 44
-78 51 -11 18 -52 15 -117 -8z m401 -1199 c-9 -23 -10 -23 -10 11 -1 20 2 39
7 43 11 12 14 -27 3 -54z m2998 -7586 c1 -94 -18 -189 -55 -273 l-20 -44 -77
138 c-42 76 -77 141 -77 144 0 3 19 18 43 33 23 16 71 52 107 82 77 63 77 63
79 -80z m1237 -1159 c23 -117 24 -329 2 -445 -9 -47 -19 -148 -22 -225 -4 -77
-9 -175 -12 -219 l-6 -78 -59 4 c-32 2 -61 6 -63 9 -11 11 -26 142 -26 229 0
52 9 157 20 232 10 75 24 213 30 305 5 92 13 193 16 224 l6 57 42 9 c28 6 43
5 48 -2 3 -6 14 -51 24 -100z"/>
</g>
</svg>
