<?xml version="1.0" encoding="utf-8"?>
<!-- Svg Vector Icons : http://www.onlinewebfonts.com/icon -->
<!DOCTYPE svg PUBLIC "-//W3C//DTD SVG 1.1//EN" "http://www.w3.org/Graphics/SVG/1.1/DTD/svg11.dtd">
<svg version="1.1" xmlns="http://www.w3.org/2000/svg" xmlns:xlink="http://www.w3.org/1999/xlink" x="0px" y="0px" viewBox="0 0 1000 1000" enable-background="new 0 0 1000 1000" xml:space="preserve">
<metadata> Svg Vector Icons : http://www.onlinewebfonts.com/icon </metadata>
<g><path d="M694.2,978.7c-163.4,0-295.8-127.9-295.8-285.8c0-157.8,132.5-285.8,295.8-285.8c125.5,0,295.8,105.7,295.8,285.8C990,850.7,857.6,978.7,694.2,978.7z M693.1,450.3c-138.7,0-251.2,108.6-251.2,242.6c0,134,112.5,242.6,251.2,242.6c138.7,0,251.2-108.6,251.2-242.6C944.3,558.9,831.9,450.3,693.1,450.3z M307.6,660.7c3,0,5.4,10.6,5.4,23.7c0,13.1-2.4,23.7-5.4,23.7H151.7c-3,0-5.4-10.6-5.4-23.7c0-13.1,2.4-23.7,5.4-23.7H307.6z M372.5,554.8H153.9c-4.2,0-7.5-10.6-7.5-23.7s3.4-23.7,7.5-23.7h218.6c4.2,0,7.5,10.6,7.5,23.7C380,544.2,376.6,554.8,372.5,554.8z M633.7,234.4H162.6c-9,0-16.2-10.6-16.2-23.7c0-13.1,7.2-23.7,16.2-23.7h471.1c9,0,16.2,10.6,16.2,23.7C649.9,223.8,642.6,234.4,633.7,234.4z M633.7,390.9H162.6c-9,0-16.2-10.6-16.2-23.7c0-13.1,7.2-23.7,16.2-23.7h471.1c9,0,16.2,10.6,16.2,23.7C649.9,380.3,642.6,390.9,633.7,390.9z M892.5,437.5c-11.3-12.1-51.8-13.3-51.8-13.3s1.7-222.5,1.7-286.6s-43.4-58-43.4-58c-556.6,0.9-557.1,0.7-645.2,3c-92.7,2.4-86.7,70.8-86.7,70.8S63.8,660,63.8,778.6c0,118.6,54.9,102.1,54.9,102.1s279.9,3.5,313.8,3.5c-3.8,25.4,10.8,52.4,10.8,52.4s-229.8,1.3-337.6-1.1c-107.8-2.4-95.3-67.8-95.3-67.8s0-681.4,0-743.1C8,16.9,105.7,23,105.7,23s652.7-3.6,720.4,0c67.6,3.6,66.4,111.4,66.4,111.4S892.5,402.4,892.5,437.5z M718.7,725.3c-7.9,8-12.8,15.1-14.4,21.4c-1.7,6.3-2.5,16.2-2.5,29.6h-43.5c0.2-21.3,2-36.1,5.5-44.4c3.5-8.2,12.8-19.1,27.8-32.7c14.6-17.2,24.9-30.4,31.1-39.7c6.2-9.3,9.2-20.4,9.2-33.5c0-15.6-4.1-27.6-12.5-35.9c-8.3-8.4-20.2-12.6-35.6-12.6c-13.4,0-24.8,3.6-34.2,10.9c-9.4,7.3-14.1,27.6-14.1,41.7h-41.5l-0.7-1.3c-0.4-23.7,7.9-52.3,25.1-66.5c17.1-14.3,38.9-21.4,65.4-21.4c29,0,51.5,7.4,67.5,22.2c16,14.7,24,35.4,24,61.9c0,19-5.2,36.3-15.5,52.1C749.4,692.7,735.7,708.8,718.7,725.3z M703.3,866.7h-45.5v-45.9h45.5V866.7z"/></g>
</svg>