<?xml version="1.0" standalone="no"?>
<!DOCTYPE svg PUBLIC "-//W3C//DTD SVG 20010904//EN"
 "http://www.w3.org/TR/2001/REC-SVG-20010904/DTD/svg10.dtd">
<svg version="1.0" xmlns="http://www.w3.org/2000/svg"
 width="1280.000000pt" height="964.000000pt" viewBox="0 0 1280.000000 964.000000"
 preserveAspectRatio="xMidYMid meet">
<metadata>
Created by potrace 1.15, written by Peter Selinger 2001-2017
</metadata>
<g transform="translate(0.000000,964.000000) scale(0.100000,-0.100000)"
fill="#000000" stroke="none">
<path d="M10065 9624 c-161 -25 -307 -66 -505 -143 -177 -69 -189 -87 -160
-243 11 -62 20 -146 20 -186 0 -72 1 -74 23 -69 12 3 72 11 132 18 190 21 339
-12 383 -83 29 -47 28 -89 -3 -126 -43 -51 -89 -55 -325 -32 -113 11 -208 20
-212 20 -10 0 -10 -53 -2 -152 l7 -75 151 -12 c231 -18 386 -46 574 -106 l82
-26 -567 -431 c-756 -574 -1361 -1028 -1370 -1028 -5 0 -42 30 -83 67 -311
277 -640 481 -994 617 -499 192 -832 254 -1204 227 -328 -24 -400 -39 -775
-163 -110 -36 -330 -139 -377 -177 -67 -53 -54 -60 -331 165 -242 197 -559
466 -863 732 l-139 122 -3 70 c-7 121 -62 226 -138 261 -51 23 -89 24 -154 3
l-49 -16 -315 284 -315 284 -169 47 c-324 90 -621 157 -693 157 -108 0 -499
-143 -666 -244 -136 -81 -290 -233 -386 -379 -117 -177 -134 -228 -148 -444
-11 -158 -6 -191 36 -236 38 -40 162 -134 264 -200 58 -37 98 -72 127 -110 55
-73 104 -90 222 -77 90 10 144 31 282 110 131 74 211 133 244 182 28 39 28 44
26 160 -1 66 -6 127 -12 137 -5 10 -43 33 -85 51 -41 18 -75 35 -75 39 0 3 49
38 108 77 76 51 134 80 202 103 115 39 203 61 248 61 40 0 150 -46 224 -92 29
-19 61 -37 70 -41 29 -10 222 -143 242 -166 12 -13 16 -25 10 -30 -15 -14
-510 -297 -788 -451 l-259 -143 6 -191 7 -190 37 -38 c73 -75 218 -101 313
-56 35 16 70 22 160 25 l115 4 209 -150 c115 -83 213 -151 217 -151 12 0 269
-196 579 -441 455 -359 481 -382 474 -399 -29 -67 -85 -251 -99 -320 -27 -145
-30 -203 -28 -630 1 -363 3 -426 20 -500 17 -82 17 -88 0 -170 -14 -65 -19
-141 -22 -327 -2 -133 -6 -256 -10 -273 -4 -17 -1 -156 5 -310 l12 -280 -22
-18 c-12 -9 -113 -78 -226 -152 -112 -74 -257 -176 -322 -227 -72 -57 -157
-112 -221 -145 -66 -33 -125 -72 -158 -104 l-53 -50 0 -92 0 -91 -55 -41
c-108 -80 -196 -223 -250 -405 -15 -49 -31 -101 -37 -115 -6 -14 -12 -35 -14
-48 -5 -41 -55 -129 -106 -186 l-48 -55 -123 59 c-189 90 -237 105 -342 105
-76 -1 -106 -6 -188 -34 -125 -43 -354 -155 -465 -227 -280 -182 -551 -493
-783 -899 -145 -253 -191 -434 -132 -513 68 -92 380 -152 723 -138 366 14 562
34 875 86 448 75 561 123 1047 447 300 200 338 237 338 325 0 36 -35 118 -72
169 -25 34 -284 262 -356 313 -24 17 -38 32 -32 34 6 2 20 -4 31 -14 25 -23
24 -18 -10 60 l-30 66 42 35 c23 19 71 57 107 83 78 57 94 86 150 272 22 74
48 150 57 167 l17 33 27 -26 c19 -18 46 -29 91 -36 60 -11 67 -10 118 14 30
14 86 51 125 83 89 73 157 119 275 185 52 30 141 83 198 118 57 36 107 61 111
56 4 -5 37 -47 73 -94 111 -144 286 -307 427 -397 228 -146 635 -373 766 -426
l80 -32 210 3 c116 1 271 8 344 15 l135 13 235 -99 c232 -97 239 -99 391 -122
85 -13 157 -22 160 -20 3 2 86 4 185 6 195 2 427 20 572 45 84 14 125 31 500
209 403 191 409 194 478 262 39 37 87 87 107 109 40 46 28 44 184 28 l51 -5
23 -84 23 -84 95 -3 96 -3 8 -30 c4 -16 10 -51 13 -77 l6 -47 112 -3 112 -3 5
-80 c4 -61 9 -80 20 -82 8 -1 60 -7 115 -13 l101 -12 14 -66 c9 -37 21 -68 28
-68 6 -1 54 -2 106 -3 l94 -1 7 -71 7 -72 94 7 c74 6 94 4 95 -6 0 -7 6 -51
13 -98 l11 -85 100 -3 c64 -2 102 -7 107 -15 7 -12 24 -125 20 -140 -1 -4 45
-7 103 -7 l105 0 0 -37 c0 -21 3 -54 6 -74 l6 -35 107 4 106 4 26 -78 25 -79
75 -1 74 -1 8 -62 c8 -58 10 -61 36 -61 16 0 48 -3 73 -6 43 -6 46 -8 59 -53
8 -26 21 -47 29 -48 115 -14 106 -10 126 -66 18 -50 21 -52 59 -55 22 -1 59
-5 83 -8 39 -5 42 -7 42 -37 0 -71 6 -77 76 -77 l63 0 3 -37 c2 -25 8 -39 18
-40 90 -11 90 -11 90 -56 0 -30 6 -48 20 -60 19 -16 26 -13 187 86 127 77 241
161 473 345 207 165 307 252 312 268 4 14 8 49 9 77 l3 52 -459 388 c-253 214
-921 774 -1485 1244 -564 471 -1029 860 -1034 864 -5 5 -3 16 5 27 67 92 82
119 86 151 5 33 1 41 -23 60 -62 48 -264 237 -264 246 0 6 -22 26 -47 45 -26
19 -90 76 -142 125 -53 50 -142 128 -198 173 l-103 83 -1 177 c0 97 -4 197 -8
222 -4 31 -1 67 11 114 40 155 50 241 55 481 9 391 -19 561 -135 852 l-21 51
267 193 c147 106 575 419 952 694 377 276 728 530 780 565 52 35 98 68 102 74
4 6 13 43 19 82 l11 72 165 -104 c91 -57 186 -121 212 -142 25 -21 53 -43 62
-50 13 -9 33 1 121 62 l106 74 21 -29 c11 -15 30 -53 41 -83 45 -119 168 -206
321 -226 185 -25 437 78 583 240 99 109 188 299 207 440 16 121 4 293 -28 400
-41 136 -37 132 -193 210 -137 69 -141 70 -217 70 -65 0 -88 4 -135 27 l-56
28 -4 105 -3 105 -195 118 c-184 111 -394 232 -505 290 -27 15 -165 74 -304
131 -240 98 -256 104 -282 91 -20 -11 -35 -12 -60 -5 -106 31 -397 61 -569 59
-47 -1 -125 -7 -175 -15z m-6781 -1622 c16 -12 25 -22 19 -22 -5 0 -24 14 -43
31 -36 32 -26 28 24 -9z"/>
</g>
</svg>
