<?xml version="1.0" encoding="UTF-8" standalone="no"?>
<svg
   xmlns:osb="http://www.openswatchbook.org/uri/2009/osb"
   xmlns:dc="http://purl.org/dc/elements/1.1/"
   xmlns:cc="http://creativecommons.org/ns#"
   xmlns:rdf="http://www.w3.org/1999/02/22-rdf-syntax-ns#"
   xmlns:svg="http://www.w3.org/2000/svg"
   xmlns="http://www.w3.org/2000/svg"
   xmlns:sodipodi="http://sodipodi.sourceforge.net/DTD/sodipodi-0.dtd"
   xmlns:inkscape="http://www.inkscape.org/namespaces/inkscape"
   version="1.1"
   width="32"
   height="32"
   viewBox="0 0 32 32"
   id="svg845"
   sodipodi:docname="sound_off.svg"
   inkscape:version="1.0.2 (e86c870, 2021-01-15)">
  <metadata
     id="metadata851">
    <rdf:RDF>
      <cc:Work
         rdf:about="">
        <dc:format>image/svg+xml</dc:format>
        <dc:type
           rdf:resource="http://purl.org/dc/dcmitype/StillImage" />
        <dc:title></dc:title>
      </cc:Work>
    </rdf:RDF>
  </metadata>
  <sodipodi:namedview
     pagecolor="#ffffff"
     bordercolor="#666666"
     borderopacity="1"
     objecttolerance="10"
     gridtolerance="10"
     guidetolerance="10"
     inkscape:pageopacity="0"
     inkscape:pageshadow="2"
     inkscape:window-width="2560"
     inkscape:window-height="1361"
     id="namedview847"
     showgrid="false"
     inkscape:zoom="31.5"
     inkscape:cx="16"
     inkscape:cy="14.730159"
     inkscape:window-x="-9"
     inkscape:window-y="-9"
     inkscape:window-maximized="1"
     inkscape:current-layer="svg845" />
  <path
     fill="#000000"
     d="M31.975 18.983l-2.981 2.983-2.983-2.983-2.983 2.983-2.981-2.983 2.981-2.983-2.981-2.983 2.981-2.983 2.983 2.983 2.983-2.983 2.981 2.983-2.981 2.983 2.981 2.983zM16.017 31.992l-7.996-7.996h-5.997c-1.105 0-1.999-0.894-1.999-1.999v-11.994c0-1.105 0.894-1.999 1.999-1.999h5.997l7.996-7.996c0 0 1.999-0.25 1.999 1.999 0 10.846 0 26.607 0 27.986 0 2.249-1.999 1.999-1.999 1.999zM14.018 8.004l-3.998 3.998h-5.997v7.996h5.997l3.998 3.998v-15.992z"
     id="path843"
     style="fill:#000000;fill-opacity:1" />
</svg>
