<?xml version="1.0" standalone="no"?>
<!DOCTYPE svg PUBLIC "-//W3C//DTD SVG 20010904//EN"
 "http://www.w3.org/TR/2001/REC-SVG-20010904/DTD/svg10.dtd">
<svg version="1.0" xmlns="http://www.w3.org/2000/svg"
 width="1280.000000pt" height="1280.000000pt" viewBox="0 0 1280.000000 1280.000000"
 preserveAspectRatio="xMidYMid meet">
<metadata>
Created by potrace 1.15, written by Peter Selinger 2001-2017
</metadata>
<g transform="translate(0.000000,1280.000000) scale(0.100000,-0.100000)"
fill="#000000" stroke="none">
<path d="M4485 12789 c-976 -66 -1897 -421 -2665 -1028 -653 -517 -1181 -1227
-1483 -1996 -451 -1151 -447 -2414 13 -3565 56 -142 206 -450 287 -590 386
-667 929 -1238 1574 -1653 277 -177 603 -341 909 -455 1075 -402 2288 -402
3360 0 889 333 1660 925 2224 1707 200 277 424 682 545 987 379 958 451 1962
210 2952 -199 819 -625 1584 -1224 2201 -760 782 -1778 1286 -2860 1415 -288
35 -614 44 -890 25z m765 -1219 c798 -106 1492 -442 2064 -1000 605 -590 964
-1333 1068 -2205 16 -141 17 -585 0 -730 -83 -724 -336 -1335 -786 -1900 -161
-202 -476 -499 -701 -662 -438 -315 -965 -535 -1490 -622 -235 -39 -327 -46
-605 -46 -339 0 -555 24 -847 96 -1398 341 -2458 1479 -2702 2899 -36 209 -46
348 -46 610 1 488 81 899 263 1350 231 573 652 1122 1154 1503 574 435 1184
663 1958 731 116 10 522 -4 670 -24z"/>
<path d="M9558 5048 c-418 -595 -1170 -1330 -1808 -1767 -58 -40 -106 -75
-108 -80 -3 -10 3178 -2913 3257 -2972 351 -258 829 -299 1226 -105 288 141
509 390 612 691 32 95 63 279 63 378 0 277 -112 580 -284 774 -243 274 -2808
3137 -2835 3166 l-36 37 -87 -122z"/>
</g>
</svg>
